<svg width="24" height="24" viewBox="0 0 24 24" fill="none" xmlns="http://www.w3.org/2000/svg">
<path d="M11.7693 19C11.5501 19 11.3671 18.9266 11.2203 18.7797C11.0734 18.6329 11 18.4499 11 18.2308V12.6537L5.60377 5.83075C5.46927 5.65125 5.45102 5.46792 5.54902 5.28075C5.64719 5.09358 5.80394 5 6.01927 5H17.9808C18.1961 5 18.3529 5.09358 18.451 5.28075C18.549 5.46792 18.5308 5.65125 18.3963 5.83075L13 12.6537V18.2308C13 18.4499 12.9266 18.6329 12.7798 18.7797C12.6329 18.9266 12.4499 19 12.2308 19H11.7693ZM12 12.3L16.95 6H7.05002L12 12.3Z" fill="#ffffff"/>
</svg>
