<svg width="48" height="48" viewBox="0 0 48 48" fill="none" xmlns="http://www.w3.org/2000/svg">
<g id="icons-status">
<path id="Vector" d="M23 35L31 23H26L28 15H21L19 27H25L23 35ZM24.0067 42C21.5176 42 19.1774 41.5277 16.9862 40.583C14.795 39.6384 12.8889 38.3564 11.2679 36.737C9.64705 35.1176 8.36383 33.2133 7.4183 31.0241C6.47277 28.8349 6 26.4958 6 24.0067C6 21.5176 6.47232 19.1774 7.41695 16.9862C8.36162 14.795 9.64365 12.8889 11.2631 11.268C12.8825 9.64705 14.7867 8.36383 16.9759 7.4183C19.1651 6.47277 21.5042 6 23.9933 6C26.4824 6 28.8226 6.47232 31.0138 7.41695C33.205 8.36162 35.1111 9.64365 36.732 11.263C38.353 12.8824 39.6362 14.7867 40.5817 16.9759C41.5272 19.1651 42 21.5042 42 23.9933C42 26.4824 41.5277 28.8226 40.583 31.0138C39.6384 33.205 38.3564 35.1111 36.737 36.732C35.1176 38.353 33.2133 39.6362 31.0241 40.5817C28.8349 41.5272 26.4958 42 24.0067 42Z" fill="#000000"/>
</g>
</svg>
