<svg width="48" height="48" viewBox="0 0 48 48" fill="none" xmlns="http://www.w3.org/2000/svg">
<g id="icons-status">
<path id="Vector" d="M5 40L24.1178 7L43.2357 40H5ZM24.1178 35.0817C24.4775 35.0817 24.7789 34.9601 25.0222 34.7169C25.2654 34.4736 25.387 34.1721 25.387 33.8125C25.387 33.4529 25.2654 33.1514 25.0222 32.9081C24.7789 32.6649 24.4775 32.5433 24.1178 32.5433C23.7582 32.5433 23.4567 32.6649 23.2135 32.9081C22.9702 33.1514 22.8486 33.4529 22.8486 33.8125C22.8486 34.1721 22.9702 34.4736 23.2135 34.7169C23.4567 34.9601 23.7582 35.0817 24.1178 35.0817ZM22.9835 30.4808H25.2522V20.1683H22.9835V30.4808Z" fill="#000000"/>
</g>
</svg>
