<svg width="48" height="48" viewBox="0 0 48 48" fill="none" xmlns="http://www.w3.org/2000/svg">
<g id="icons-status">
<path id="Exclude" fill-rule="evenodd" clip-rule="evenodd" d="M16.6639 6.00151L32.3246 6L42.9985 16.6639L43 32.3246L32.3361 42.9985L16.6754 43L6.00151 32.3361L6 16.6754L16.6639 6.00151ZM21 15H28L26 23H31L23 35L25 27H19L21 15ZM18.4149 10.1777L10.1765 18.4238L10.1777 30.5851L18.4238 38.8234L30.5851 38.8223L38.8234 30.5762L38.8223 18.4149L30.5762 10.1765L18.4149 10.1777ZM31.404 8.17647L17.5858 8.1778L8.17647 17.596L8.1778 31.4142L17.596 40.8235L31.4142 40.8222L40.8235 31.404L40.8222 17.5858L31.404 8.17647Z" fill="#FFFFFF"/>
</g>
</svg>
