<svg width="48" height="48" viewBox="0 0 48 48" fill="none" xmlns="http://www.w3.org/2000/svg">
<g id="icons-status">
<path id="Vector" d="M40.13 8.87C39.55 8.29 38.82 8 37.95 8H10.05C9.18 8 8.45 8.29 7.87 8.87C7.29 9.45 7 10.18 7 11.05V40L13 34.5L37.95 34.44C38.82 34.44 39.55 34.15 40.13 33.57C40.71 32.99 41 32.26 41 31.39V11.05C41 10.18 40.71 9.45 40.13 8.87ZM16.5 23C15.67 23 15 22.33 15 21.5C15 20.67 15.67 20 16.5 20C17.33 20 18 20.67 18 21.5C18 22.33 17.33 23 16.5 23ZM24 23C23.17 23 22.5 22.33 22.5 21.5C22.5 20.67 23.17 20 24 20C24.83 20 25.5 20.67 25.5 21.5C25.5 22.33 24.83 23 24 23ZM31.5 23C30.67 23 30 22.33 30 21.5C30 20.67 30.67 20 31.5 20C32.33 20 33 20.67 33 21.5C33 22.33 32.33 23 31.5 23Z" fill="#000000"/>
</g>
</svg>
