<svg width="72" height="72" viewBox="0 0 72 72" fill="none" xmlns="http://www.w3.org/2000/svg">
<rect x="1" y="1" width="70" height="70" fill="url(#paint0_linear_4625_14626)"/>
<rect x="1" y="1" width="70" height="70" stroke="#CCCCCC" stroke-width="2"/>
<path d="M36 41.4038L25.3846 30.7884L26.8 29.373L36 38.573L45.2 29.373L46.6154 30.7884L36 41.4038Z" fill="#FFFFFF"/>
<path d="M52.6155 23C52.1712 23 51.7908 22.8418 51.4745 22.5255C51.1582 22.2092 51 21.8288 51 21.3845V12.6155C51 12.1712 51.1582 11.7908 51.4745 11.4745C51.7908 11.1582 52.1712 11 52.6155 11H54V9C54 7.88583 54.3882 6.94067 55.1645 6.1645C55.9407 5.38817 56.8858 5 58 5C59.1142 5 60.0593 5.38817 60.8355 6.1645C61.6118 6.94067 62 7.88583 62 9V11H63.3845C63.8288 11 64.2092 11.1582 64.5255 11.4745C64.8418 11.7908 65 12.1712 65 12.6155V21.3845C65 21.8288 64.8418 22.2092 64.5255 22.5255C64.2092 22.8418 63.8288 23 63.3845 23H52.6155ZM58 18.5C58.4218 18.5 58.7773 18.3554 59.0663 18.0663C59.3554 17.7773 59.5 17.4218 59.5 17C59.5 16.5782 59.3554 16.2228 59.0663 15.9338C58.7773 15.6446 58.4218 15.5 58 15.5C57.5782 15.5 57.2228 15.6446 56.9338 15.9338C56.6446 16.2228 56.5 16.5782 56.5 17C56.5 17.4218 56.6446 17.7773 56.9338 18.0663C57.2228 18.3554 57.5782 18.5 58 18.5ZM55 11H61V9C61 8.16667 60.7083 7.45833 60.125 6.875C59.5417 6.29167 58.8333 6 58 6C57.1667 6 56.4583 6.29167 55.875 6.875C55.2917 7.45833 55 8.16667 55 9V11Z" fill="#666666"/>
<defs>
<linearGradient id="paint0_linear_4625_14626" x1="36" y1="0" x2="36" y2="72" gradientUnits="userSpaceOnUse">
<stop stop-color="#D4D6D8"/>
<stop offset="0.5" stop-color="#C9CCCF"/>
<stop offset="1" stop-color="#C7C9CB"/>
</linearGradient>
</defs>
</svg>
