<svg width="72" height="72" viewBox="0 0 72 72" fill="none" xmlns="http://www.w3.org/2000/svg">
<g filter="url(#filter0_d_5415_10059)">
<rect x="19" y="19" width="34" height="34" rx="17" fill="white" stroke="#CCCCCC" stroke-width="2"/>
<path d="M36 23C39.4478 23 42.7544 24.3696 45.1924 26.8076L36 36V23Z" fill="white"/>
<path d="M45.1924 26.8076C47.6304 29.2456 49 32.5522 49 36L36 36L45.1924 26.8076Z" fill="#F3FBFF"/>
<path d="M49 36C49 39.4478 47.6304 42.7544 45.1924 45.1924L36 36H49Z" fill="#E6F8FF"/>
<path d="M45.1924 45.1924C42.7544 47.6304 39.4478 49 36 49L36 36L45.1924 45.1924Z" fill="#CEF1FF"/>
<path d="M36 49C32.5522 49 29.2456 47.6304 26.8076 45.1924L36 36L36 49Z" fill="#9DE2FF"/>
<path d="M26.8076 45.1924C24.3696 42.7544 23 39.4478 23 36L36 36L26.8076 45.1924Z" fill="#6CD4FF"/>
<path d="M23 36C23 32.5522 24.3696 29.2456 26.8076 26.8076L36 36L23 36Z" fill="#3BC5FF"/>
<path d="M26.8076 26.8076C29.2456 24.3696 32.5522 23 36 23L36 36L26.8076 26.8076Z" fill="#0AB7FF"/>
<circle cx="36" cy="36" r="6" fill="white"/>
</g>
<defs>
<filter id="filter0_d_5415_10059" x="-18" y="-18" width="108" height="108" filterUnits="userSpaceOnUse" color-interpolation-filters="sRGB">
<feFlood flood-opacity="0" result="BackgroundImageFix"/>
<feColorMatrix in="SourceAlpha" type="matrix" values="0 0 0 0 0 0 0 0 0 0 0 0 0 0 0 0 0 0 127 0" result="hardAlpha"/>
<feOffset/>
<feGaussianBlur stdDeviation="9"/>
<feComposite in2="hardAlpha" operator="out"/>
<feColorMatrix type="matrix" values="0 0 0 0 0.811765 0 0 0 0 0.937255 0 0 0 0 1 0 0 0 1 0"/>
<feBlend mode="normal" in2="BackgroundImageFix" result="effect1_dropShadow_5415_10059"/>
<feBlend mode="normal" in="SourceGraphic" in2="effect1_dropShadow_5415_10059" result="shape"/>
</filter>
</defs>
</svg>
