<svg width="24" height="24" viewBox="0 0 24 24" fill="none" xmlns="http://www.w3.org/2000/svg">
<path d="M6.6155 21C6.17117 21 5.79083 20.8418 5.4745 20.5255C5.15817 20.2092 5 19.8288 5 19.3845V10.6155C5 10.1712 5.15817 9.79083 5.4745 9.4745C5.79083 9.15817 6.17117 9 6.6155 9H8V7C8 5.88583 8.38817 4.94067 9.1645 4.1645C9.94067 3.38817 10.8858 3 12 3C13.1142 3 14.0593 3.38817 14.8355 4.1645C15.6118 4.94067 16 5.88583 16 7V9H17.3845C17.8288 9 18.2092 9.15817 18.5255 9.4745C18.8418 9.79083 19 10.1712 19 10.6155V19.3845C19 19.8288 18.8418 20.2092 18.5255 20.5255C18.2092 20.8418 17.8288 21 17.3845 21H6.6155ZM12 16.5C12.4218 16.5 12.7773 16.3554 13.0663 16.0663C13.3554 15.7773 13.5 15.4218 13.5 15C13.5 14.5782 13.3554 14.2228 13.0663 13.9338C12.7773 13.6446 12.4218 13.5 12 13.5C11.5782 13.5 11.2228 13.6446 10.9338 13.9338C10.6446 14.2228 10.5 14.5782 10.5 15C10.5 15.4218 10.6446 15.7773 10.9338 16.0663C11.2228 16.3554 11.5782 16.5 12 16.5ZM9 9H15V7C15 6.16667 14.7083 5.45833 14.125 4.875C13.5417 4.29167 12.8333 4 12 4C11.1667 4 10.4583 4.29167 9.875 4.875C9.29167 5.45833 9 6.16667 9 7V9Z" fill="#ffffff" id="lock" />
</svg>
