<svg width="36" height="36" viewBox="0 0 36 36" fill="none" xmlns="http://www.w3.org/2000/svg">
<g id="ico-action-touch">
<path id="Vector" d="M16.7509 31.5001C15.9356 31.5001 15.1593 31.3308 14.4218 30.9923C13.6843 30.6538 13.0741 30.1616 12.5914 29.5156L5.48364 20.1087L5.87889 19.6759C6.12889 19.4009 6.42602 19.2327 6.77027 19.1712C7.11452 19.1097 7.44239 19.1703 7.75389 19.3531L12.2884 21.5884V10.1539C12.2884 9.94143 12.3604 9.76331 12.5044 9.61956C12.6484 9.47581 12.8268 9.40393 13.0395 9.40393C13.2523 9.40393 13.4318 9.47581 13.578 9.61956C13.724 9.76331 13.797 9.94143 13.797 10.1539V24.1328L8.42889 21.4789L13.8866 28.6876C14.2289 29.1318 14.6539 29.4616 15.1616 29.6768C15.6694 29.8923 16.1991 30.0001 16.7509 30.0001H23.2211C24.2769 30.0001 25.1706 29.6391 25.9024 28.9171C26.6341 28.1948 27 27.3058 27 26.2501V20.9423C27 20.3376 26.7954 19.8306 26.3861 19.4213C25.9771 19.0123 25.4703 18.8078 24.8655 18.8078H17.9509V17.3078H24.8655C25.875 17.3078 26.7331 17.6612 27.4399 18.3679C28.1466 19.0747 28.5 19.9328 28.5 20.9423V26.2482C28.5 27.7072 27.9831 28.9472 26.9494 29.9682C25.9156 30.9894 24.6729 31.5001 23.2211 31.5001H16.7509ZM7.84914 13.1539C7.58189 12.7002 7.37989 12.2206 7.24314 11.7151C7.10664 11.2096 7.03839 10.6892 7.03839 10.1539C7.03839 8.48268 7.62064 7.06493 8.78514 5.90068C9.94964 4.73618 11.3674 4.15393 13.0384 4.15393C14.7096 4.15393 16.1275 4.73618 17.292 5.90068C18.4563 7.06493 19.0384 8.48143 19.0384 10.1502C19.0384 10.6929 18.9701 11.2158 18.8336 11.7188C18.6971 12.2218 18.4953 12.7002 18.228 13.1539L16.9384 12.4039C17.1384 12.0539 17.2884 11.6977 17.3884 11.3352C17.4884 10.9727 17.5384 10.5789 17.5384 10.1539C17.5384 8.90393 17.1009 7.84143 16.2259 6.96643C15.3509 6.09143 14.2884 5.65393 13.0384 5.65393C11.7884 5.65393 10.7259 6.09143 9.85089 6.96643C8.97589 7.84143 8.53839 8.90393 8.53839 10.1539C8.53839 10.5789 8.58839 10.9727 8.68839 11.3352C8.78839 11.6977 8.93839 12.0539 9.13839 12.4039L7.84914 13.1539Z" fill="#000000"/>
</g>
</svg>
